<svg xmlns="http://www.w3.org/2000/svg" viewBox="0 0 265.24 265.24"><defs><style>.cls-1{fill:#2acaf8;}.cls-2{fill:#007ba4;}.cls-3{fill:#fff;}</style></defs><g id="Layer_2" data-name="Layer 2"><g id="Layer_1-2" data-name="Layer 1"><path class="cls-1" d="M132.62,17.38a115.24,115.24,0,0,0,0,230.48h0a115.24,115.24,0,0,0,0-230.48Z"/><path class="cls-1" d="M132.62,0h0A132.63,132.63,0,0,0,0,132.62H0A132.63,132.63,0,0,0,132.62,265.24h0A132.63,132.63,0,0,0,265.24,132.62h0A132.63,132.63,0,0,0,132.62,0Zm0,252.3A119.68,119.68,0,1,1,252.3,132.62,119.82,119.82,0,0,1,132.62,252.3Z"/><path class="cls-2" d="M127.45,131.52a4.32,4.32,0,0,0-2.32,2.64C117,151.53,107.61,168.34,101,186.41c-1.25,3.4-2.78,6.68-3.4,10.29a12.17,12.17,0,0,1-3.15,5.8c-2.35,2.67-5.23,2.46-9.57-.05s-7.13-6.57-9.75-10.76c-5.92-9.46-11.57-19.09-17.92-28.28-2.55-3.72-5.3-7.33-7.34-11.4-1.46-2.92-1.61-5.74.71-7.9a46.51,46.51,0,0,1,14.15-9.52c5.08-2,7.23-.66,10.27,4,5.07,7.73,9.47,15.83,13.77,24,.93,1.79,1.5,1.55,2.32,0a486.44,486.44,0,0,1,32.49-51.51C137.36,91.9,150.7,72.34,166,54.25c1.54-1.82,2.49-4.14,4.67-5.41,1.4-.82,2.89-1.68,4.4-.66s2.56,2.45,1.87,4.49a45,45,0,0,0-7.45,10,6.45,6.45,0,0,0-.75.82c-11,17-22.15,33.91-32.46,51.34-2.25,3.79-5.06,7.29-6.47,11.56C129.14,128.19,127.7,129.58,127.45,131.52Z"/><path class="cls-3" d="M169.49,62.72a45,45,0,0,1,7.45-10c.84,2.26.14,4.58.07,6.82-.17,6.17-.92,12.33-1.29,18.5q-.84,14.37-1.39,28.74c-.33,8.48-.55,17-.59,25.44a475.27,475.27,0,0,0,4.17,61.25c.49,3.93.7,7.9,1.06,11.85.42,4.55-.86,6.78-4.28,7.38a7,7,0,0,1-8.25-5.61c-1.11-4.61-1.18-9.32-1.46-14-.61-10-.33-19.9-.57-29.85-.19-8.11.06-16.23.21-24.34.06-2.94.39-5.89.58-8.83.11-1.83-.3-2.87-2.59-2.55-11.41,1.63-23,1.7-34.33,4.08a3.3,3.3,0,0,1-.83,0c.25-1.94,1.69-3.33,2.36-5.08,4.22-.47,8.42-.93,12.66-1.2a201.16,201.16,0,0,0,20.64-1.92c1.63-.28,2.65-.83,2.74-2.79.58-12.8,1.23-25.59,2.65-38.33.52-4.77,1-9.55,1.23-14.33C169.8,66.19,170.39,64.39,169.49,62.72Z"/></g></g></svg>